<svg width="20" height="20" viewBox="0 0 20 20" fill="none" xmlns="http://www.w3.org/2000/svg">
<path d="M6.37554 17.425C6.35054 17.425 6.3172 17.4417 6.2922 17.4417C4.67554 16.6417 3.35887 15.3167 2.55054 13.7C2.55054 13.675 2.5672 13.6417 2.5672 13.6167C3.58387 13.9167 4.63387 14.1417 5.67554 14.3167C5.85887 15.3667 6.07554 16.4084 6.37554 17.425Z" fill="current"/>
<path d="M17.4492 13.7084C16.6242 15.3667 15.2492 16.7084 13.5742 17.5167C13.8909 16.4584 14.1576 15.3917 14.3326 14.3167C15.3826 14.1417 16.4159 13.9167 17.4326 13.6167C17.4242 13.65 17.4492 13.6834 17.4492 13.7084Z" fill="current"/>
<path d="M17.5159 6.42507C16.4659 6.1084 15.4076 5.85007 14.3326 5.66673C14.1576 4.59173 13.8992 3.52507 13.5742 2.4834C15.2992 3.3084 16.6909 4.70007 17.5159 6.42507Z" fill="current"/>
<path d="M6.37531 2.5748C6.07531 3.59147 5.85864 4.6248 5.68364 5.6748C4.60864 5.84147 3.54198 6.10814 2.48364 6.4248C3.29198 4.7498 4.63364 3.3748 6.29198 2.5498C6.31698 2.5498 6.35031 2.5748 6.37531 2.5748Z" fill="current"/>
<path d="M12.9085 5.4915C10.9751 5.27484 9.02513 5.27484 7.0918 5.4915C7.30013 4.34984 7.5668 3.20817 7.9418 2.10817C7.95846 2.0415 7.95013 1.9915 7.95846 1.92484C8.6168 1.7665 9.2918 1.6665 10.0001 1.6665C10.7001 1.6665 11.3835 1.7665 12.0335 1.92484C12.0418 1.9915 12.0418 2.0415 12.0585 2.10817C12.4335 3.2165 12.7001 4.34984 12.9085 5.4915Z" fill="current"/>
<path d="M5.49175 12.9085C4.34175 12.7001 3.20841 12.4335 2.10841 12.0585C2.04175 12.0418 1.99175 12.0501 1.92508 12.0418C1.76675 11.3835 1.66675 10.7085 1.66675 10.0001C1.66675 9.30013 1.76675 8.6168 1.92508 7.9668C1.99175 7.95846 2.04175 7.95846 2.10841 7.9418C3.21675 7.57513 4.34175 7.30013 5.49175 7.0918C5.28342 9.02513 5.28342 10.9751 5.49175 12.9085Z" fill="current"/>
<path d="M18.3333 10.0001C18.3333 10.7085 18.2333 11.3835 18.075 12.0418C18.0083 12.0501 17.9583 12.0418 17.8916 12.0585C16.7833 12.4251 15.65 12.7001 14.5083 12.9085C14.725 10.9751 14.725 9.02513 14.5083 7.0918C15.65 7.30013 16.7916 7.5668 17.8916 7.9418C17.9583 7.95846 18.0083 7.9668 18.075 7.9668C18.2333 8.62513 18.3333 9.30013 18.3333 10.0001Z" fill="current"/>
<path d="M12.9085 14.5083C12.7001 15.6583 12.4335 16.7916 12.0585 17.8916C12.0418 17.9583 12.0418 18.0083 12.0335 18.075C11.3835 18.2333 10.7001 18.3333 10.0001 18.3333C9.2918 18.3333 8.6168 18.2333 7.95846 18.075C7.95013 18.0083 7.95846 17.9583 7.9418 17.8916C7.57513 16.7833 7.30013 15.6583 7.0918 14.5083C8.05846 14.6166 9.02513 14.6916 10.0001 14.6916C10.9751 14.6916 11.9501 14.6166 12.9085 14.5083Z" fill="current"/>
<path d="M13.1359 13.1359C11.0517 13.3989 8.94797 13.3989 6.86373 13.1359C6.60076 11.0517 6.60076 8.94797 6.86373 6.86373C8.94797 6.60076 11.0517 6.60076 13.1359 6.86373C13.3989 8.94797 13.3989 11.0517 13.1359 13.1359Z" fill="current"/>
</svg>
