<svg width="24" height="24" viewBox="0 0 24 24" fill="none" xmlns="http://www.w3.org/2000/svg">
<path d="M18.2104 11.9999L17.8569 12.3535L12.7053 17.505C12.7053 17.505 12.7053 17.505 12.7053 17.5051C12.5741 17.6363 12.5004 17.8143 12.5004 17.9999C12.5004 18.1855 12.574 18.3634 12.7052 18.4947C12.7052 18.4947 12.7053 18.4948 12.7053 18.4948M18.2104 11.9999L14.0485 18.8483C13.8235 19.0733 13.5183 19.1996 13.2001 19.1996C12.8819 19.1996 12.5767 19.0733 12.3517 18.8483L12.7053 18.4948M18.2104 11.9999L17.8569 11.6463L12.7053 6.49475L12.7053 6.49469L12.6991 6.48866C12.6322 6.42408 12.5789 6.34684 12.5422 6.26144C12.5055 6.17604 12.4862 6.08418 12.4854 5.99124C12.4846 5.8983 12.5023 5.80612 12.5375 5.72009C12.5727 5.63406 12.6247 5.55591 12.6904 5.49018C12.7561 5.42446 12.8343 5.37248 12.9203 5.33728C13.0063 5.30209 13.0985 5.28438 13.1914 5.28518C13.2844 5.28599 13.3762 5.3053 13.4616 5.34199C13.547 5.37867 13.6243 5.432 13.6889 5.49886L13.6888 5.49891L13.6949 5.50506L19.6949 11.505C19.8261 11.6363 19.8998 11.8143 19.8998 11.9999C19.8998 12.1855 19.8261 12.3635 19.6949 12.4948L13.695 18.4947M18.2104 11.9999L13.695 18.4947M12.7053 18.4948C12.8366 18.626 13.0145 18.6996 13.2001 18.6996C13.3857 18.6996 13.5637 18.6259 13.6949 18.4947M12.7053 18.4948L13.6949 18.4947M13.695 18.4947C13.695 18.4947 13.695 18.4947 13.6949 18.4947M13.695 18.4947L13.6949 18.4947" fill="white" stroke="white"/>
<path d="M11.0103 11.9997L10.6568 12.3533L5.50524 17.5048C5.50523 17.5048 5.50521 17.5048 5.50519 17.5049C5.37399 17.6361 5.30029 17.8141 5.30029 17.9997C5.30029 18.1853 5.37397 18.3632 5.50514 18.4945C5.50517 18.4945 5.50521 18.4946 5.50524 18.4946M11.0103 11.9997L5.50524 18.4946M11.0103 11.9997L10.6568 11.6462L5.50867 6.49804C5.38281 6.36631 5.31322 6.19065 5.31481 6.00837C5.3164 5.82483 5.39002 5.64926 5.51981 5.51948C5.64959 5.38969 5.82516 5.31607 6.0087 5.31448C6.19098 5.3129 6.36664 5.38248 6.49837 5.50835L12.4948 11.5048C12.4948 11.5048 12.4949 11.5048 12.4949 11.5049C12.6261 11.6361 12.6998 11.8141 12.6998 11.9997C12.6998 12.1853 12.6261 12.3633 12.4949 12.4946C12.4949 12.4946 12.4948 12.4946 12.4948 12.4946L6.49494 18.4945M11.0103 11.9997L6.49494 18.4945M5.50524 18.4946C5.6365 18.6258 5.81447 18.6995 6.00004 18.6995C6.18563 18.6995 6.36362 18.6257 6.49488 18.4946M5.50524 18.4946L6.49488 18.4946M6.49488 18.4946L6.49494 18.4945M6.49488 18.4946L6.49494 18.4945" fill="white" stroke="white"/>
</svg>
