<svg width="24" height="24" viewBox="0 0 24 24" fill="none" xmlns="http://www.w3.org/2000/svg">
<g clip-path="url(#clip0_11919_12920)">
<path d="M9.44021 14.9376L9.45254 14.9499L10.3853 15.8814L10.5854 16.0813C10.7711 16.2672 10.9917 16.4146 11.2344 16.5152C11.4451 16.6025 11.669 16.6531 11.8963 16.6649C11.9308 16.6667 11.9654 16.6676 12.0001 16.6676C12.0372 16.6676 12.0742 16.6665 12.1111 16.6645C12.3359 16.652 12.5573 16.6016 12.7657 16.5152C13.0085 16.4146 13.229 16.2672 13.4147 16.0813L13.6036 15.8925L14.5439 14.9522L13.6058 14.9518L9.44021 14.9376ZM9.44021 14.9376L10.3836 14.9381L11.3274 14.9387L11.6069 14.6589C11.7371 14.6641 11.8676 14.6666 11.9983 14.6667C11.9986 14.6667 11.9989 14.6667 11.9992 14.6667C11.9993 14.6667 11.9995 14.6667 11.9997 14.6667C11.9998 14.6667 11.9999 14.6667 12.0001 14.6667V14.6649V14.2896L12.1108 14.4003L12.1877 14.4771L12.1892 14.4786L12.3704 14.6598C12.2476 14.6644 12.1244 14.6667 12.001 14.6667L9.44021 14.9376ZM8.44474 13.9433L8.55666 14.0551C8.67571 14.0988 8.79562 14.1402 8.91632 14.1793C9.23438 14.2824 9.5579 14.3697 9.88571 14.4406C10.2542 14.5203 10.628 14.5794 11.0056 14.6171L10.0111 13.6232L9.85906 13.4713L9.3874 13M9.3874 13L9.36638 13.021L9.3874 13Z" fill="#929EAE" stroke="#929EAE" stroke-width="21.3333"/>
<path d="M10.489 19.9998H13.511C13.7378 19.57 13.9329 19.1244 14.0948 18.6665H9.90524C10.0671 19.1244 10.2622 19.57 10.489 19.9998Z" fill="#929EAE" stroke="#929EAE" stroke-width="21.3333"/>
</g>
<defs>
<clipPath id="clip0_11919_12920">
<rect width="16" height="16" fill="white" transform="translate(4 4)"/>
</clipPath>
</defs>
</svg>
