<svg width="20" height="20" viewBox="0 0 20 20" fill="none" xmlns="http://www.w3.org/2000/svg">
<g clip-path="url(#clip0_11420_37801)">
<path d="M8.58565 14.0813C8.77138 14.2672 8.99192 14.4146 9.23465 14.5152C9.47738 14.6158 9.73756 14.6676 10.0003 14.6676C10.2631 14.6676 10.5232 14.6158 10.766 14.5152C11.0087 14.4146 11.2292 14.2672 11.415 14.0813L13.5556 11.9407C13.6704 11.8137 13.732 11.6475 13.7276 11.4764C13.7232 11.3054 13.6532 11.1425 13.532 11.0216C13.4109 10.9008 13.2479 10.8311 13.0768 10.8271C12.9058 10.823 12.7397 10.885 12.613 11L10.6623 12.9513L10.667 2.66667C10.667 2.48986 10.5967 2.32029 10.4717 2.19526C10.3467 2.07024 10.1771 2 10.0003 2V2C9.8235 2 9.65393 2.07024 9.52891 2.19526C9.40388 2.32029 9.33365 2.48986 9.33365 2.66667L9.32765 12.9387L7.38765 11C7.26255 10.875 7.09292 10.8048 6.91608 10.8049C6.73923 10.8049 6.56965 10.8752 6.44465 11.0003C6.31964 11.1254 6.24945 11.2951 6.24951 11.4719C6.24957 11.6487 6.31989 11.8183 6.44498 11.9433L8.58565 14.0813Z" fill="currentColor"/>
<path d="M17.3333 12.6665C17.1565 12.6665 16.987 12.7367 16.8619 12.8618C16.7369 12.9868 16.6667 13.1564 16.6667 13.3332V15.9998C16.6667 16.1766 16.5964 16.3462 16.4714 16.4712C16.3464 16.5963 16.1768 16.6665 16 16.6665H4C3.82319 16.6665 3.65362 16.5963 3.5286 16.4712C3.40357 16.3462 3.33333 16.1766 3.33333 15.9998V13.3332C3.33333 13.1564 3.2631 12.9868 3.13807 12.8618C3.01305 12.7367 2.84348 12.6665 2.66667 12.6665C2.48986 12.6665 2.32029 12.7367 2.19526 12.8618C2.07024 12.9868 2 13.1564 2 13.3332V15.9998C2 16.5303 2.21071 17.039 2.58579 17.414C2.96086 17.7891 3.46957 17.9998 4 17.9998H16C16.5304 17.9998 17.0391 17.7891 17.4142 17.414C17.7893 17.039 18 16.5303 18 15.9998V13.3332C18 13.1564 17.9298 12.9868 17.8047 12.8618C17.6797 12.7367 17.5101 12.6665 17.3333 12.6665Z" fill="currentColor"/>
</g>
<defs>
<clipPath id="clip0_11420_37801">
<rect width="16" height="16" fill="white" transform="translate(2 2)"/>
</clipPath>
</defs>
</svg>
