<svg width="14" height="14" viewBox="0 0 14 14" fill="none" xmlns="http://www.w3.org/2000/svg">
<g clip-path="url(#clip0_12034_34533)">
<path d="M0.683667 11.1525C0.246052 11.59 0.000132154 12.1834 0 12.8022L0 13.9998H1.19758C1.81637 13.9997 2.40977 13.7537 2.84725 13.3161L10.6307 5.53272L8.46708 3.36914L0.683667 11.1525Z" fill="#667085"/>
<path d="M13.5013 0.499325C13.3593 0.357129 13.1906 0.244324 13.0049 0.16736C12.8193 0.0903958 12.6202 0.0507813 12.4192 0.0507812C12.2183 0.0507812 12.0192 0.0903958 11.8336 0.16736C11.6479 0.244324 11.4792 0.357129 11.3372 0.499325L9.29199 2.54508L11.4556 4.70866L13.5013 2.66349C13.6435 2.52144 13.7563 2.35276 13.8333 2.16709C13.9103 1.98142 13.9499 1.7824 13.9499 1.58141C13.9499 1.38042 13.9103 1.1814 13.8333 0.995726C13.7563 0.810055 13.6435 0.641373 13.5013 0.499325Z" fill="#667085"/>
</g>
<defs>
<clipPath id="clip0_12034_34533">
<rect width="14" height="14" fill="white"/>
</clipPath>
</defs>
</svg>
