<svg width="20" height="20" viewBox="0 0 20 20" fill="none" xmlns="http://www.w3.org/2000/svg">
<g clip-path="url(#clip0_11919_12879)">
<path d="M0.703393 9.19993C0.654859 9.73038 0.654859 10.2642 0.703393 10.7946C0.708594 10.8365 0.725077 10.8762 0.751083 10.9095C0.77709 10.9428 0.811644 10.9684 0.85106 10.9836L1.97539 11.4333C2.02624 11.4536 2.07129 11.4861 2.10658 11.528C2.14187 11.5698 2.1663 11.6197 2.17773 11.6733C2.38033 12.6243 2.75589 13.53 3.28573 14.3453C3.3155 14.3911 3.33353 14.4436 3.33824 14.4981C3.34295 14.5525 3.33418 14.6073 3.31273 14.6576L2.83673 15.7736C2.81828 15.8108 2.81077 15.8525 2.81508 15.8938C2.81938 15.9351 2.83533 15.9743 2.86106 16.0069C3.20416 16.4151 3.58177 16.7929 3.98973 17.1363C4.0223 17.1629 4.06178 17.1798 4.10357 17.1849C4.14535 17.1899 4.18772 17.183 4.22573 17.1649L5.34206 16.6886C5.3923 16.667 5.44712 16.6581 5.50162 16.6628C5.55612 16.6675 5.60861 16.6857 5.65439 16.7156C6.4697 17.2454 7.3754 17.621 8.32639 17.8236C8.37994 17.835 8.42984 17.8595 8.4717 17.8947C8.51356 17.93 8.54608 17.9751 8.56639 18.0259L9.01639 19.1519C9.03145 19.1906 9.05653 19.2245 9.08904 19.2502C9.12156 19.2759 9.16034 19.2925 9.20139 19.2983C9.73164 19.3463 10.2651 19.3463 10.7954 19.2983C10.8374 19.293 10.8771 19.2765 10.9104 19.2504C10.9437 19.2244 10.9693 19.1897 10.9844 19.1503L11.4334 18.0246C11.4537 17.9738 11.4862 17.9287 11.5281 17.8934C11.5699 17.8581 11.6199 17.8337 11.6734 17.8223C12.6244 17.6197 13.5301 17.2441 14.3454 16.7143C14.3913 16.6845 14.4437 16.6665 14.4982 16.6618C14.5527 16.657 14.6074 16.6658 14.6577 16.6873L15.7734 17.1633C15.8105 17.182 15.8523 17.1897 15.8936 17.1853C15.935 17.181 15.9743 17.1649 16.0067 17.1389C16.4141 16.7958 16.791 16.4182 17.1334 16.0103C17.1603 15.9778 17.1774 15.9384 17.1825 15.8965C17.1877 15.8547 17.1807 15.8122 17.1624 15.7743L16.6861 14.6579C16.6646 14.6076 16.6558 14.5529 16.6606 14.4984C16.6653 14.4439 16.6833 14.3915 16.7131 14.3456C17.2429 13.5303 17.6185 12.6246 17.8211 11.6736C17.8325 11.6201 17.8569 11.5701 17.8922 11.5283C17.9275 11.4864 17.9726 11.4539 18.0234 11.4336L19.1494 10.9836C19.188 10.9685 19.2219 10.9435 19.2477 10.911C19.2734 10.8784 19.29 10.8397 19.2957 10.7986C19.3438 10.2684 19.3438 9.73485 19.2957 9.2046V9.19993C19.29 9.15861 19.2732 9.11959 19.2473 9.08693C19.2213 9.05428 19.187 9.02918 19.1481 9.01427L18.0247 8.5666C17.9738 8.54626 17.9288 8.51368 17.8935 8.47176C17.8582 8.42984 17.8338 8.37987 17.8224 8.32627C17.6199 7.37522 17.2444 6.4695 16.7144 5.65427C16.6846 5.60841 16.6666 5.55594 16.6619 5.50147C16.6572 5.447 16.6659 5.39222 16.6874 5.34193L17.1634 4.22627C17.1817 4.18901 17.1891 4.14733 17.1848 4.10604C17.1804 4.06475 17.1644 4.02553 17.1387 3.99293C16.7957 3.58573 16.4182 3.20889 16.0104 2.8666C15.9778 2.83987 15.9382 2.82299 15.8964 2.81791C15.8545 2.81283 15.8121 2.81978 15.7741 2.83793L14.6581 3.3126C14.6078 3.33406 14.553 3.34282 14.4985 3.33811C14.4441 3.3334 14.3916 3.31537 14.3457 3.2856C13.5305 2.75564 12.6248 2.38006 11.6737 2.1776C11.6202 2.16618 11.5703 2.14174 11.5284 2.10645C11.4866 2.07116 11.454 2.02611 11.4337 1.97527L10.9837 0.849267C10.9687 0.810879 10.9438 0.777147 10.9116 0.751503C10.8793 0.725858 10.8408 0.709215 10.8001 0.703267C10.2698 0.654901 9.73629 0.654901 9.20606 0.703267C9.16414 0.708468 9.12442 0.724951 9.09114 0.750957C9.05785 0.776963 9.03225 0.811518 9.01706 0.850934L8.56673 1.97527C8.54642 2.02611 8.5139 2.07116 8.47204 2.10645C8.43018 2.14174 8.38027 2.16618 8.32673 2.1776C7.37569 2.38006 6.46997 2.75564 5.65473 3.2856C5.60887 3.31537 5.5564 3.3334 5.50193 3.33811C5.44747 3.34282 5.39268 3.33406 5.34239 3.3126L4.22639 2.8366C4.18915 2.81831 4.1475 2.81089 4.10623 2.81519C4.06495 2.81949 4.02573 2.83535 3.99306 2.86093C3.58617 3.2044 3.20936 3.582 2.86673 3.9896C2.83999 4.02214 2.8231 4.06162 2.81802 4.10342C2.81294 4.14523 2.81989 4.18761 2.83806 4.2256L3.31439 5.34193C3.33585 5.39222 3.34461 5.447 3.3399 5.50147C3.33519 5.55594 3.31716 5.60841 3.28739 5.65427C2.75743 6.4695 2.38186 7.37522 2.17939 8.32627C2.16802 8.37987 2.14361 8.42984 2.10832 8.47176C2.07302 8.51368 2.02794 8.54626 1.97706 8.5666L0.849393 9.01627C0.811006 9.03126 0.777274 9.05615 0.751629 9.08841C0.725984 9.12067 0.709341 9.15915 0.703393 9.19993ZM10.0001 2.99993C11.3845 2.99993 12.7379 3.41048 13.8891 4.17965C15.0402 4.94882 15.9374 6.04207 16.4672 7.32115C16.997 8.60023 17.1357 10.0077 16.8656 11.3656C16.5955 12.7234 15.9288 13.9707 14.9498 14.9497C13.9708 15.9286 12.7236 16.5953 11.3657 16.8654C10.0078 17.1355 8.60036 16.9969 7.32128 16.4671C6.04219 15.9373 4.94894 15.0401 4.17977 13.8889C3.4106 12.7378 3.00006 11.3844 3.00006 9.99993C3.00218 8.14407 3.74036 6.36482 5.05265 5.05252C6.36495 3.74023 8.1442 3.00205 10.0001 2.99993Z" fill="#929EAE"/>
<path d="M15 8.26886L10.1917 5.05653C10.1345 5.01932 10.0677 4.99951 9.9995 4.99951C9.93128 4.99951 9.86452 5.01932 9.80733 5.05653L5 8.26053L5.376 8.83586L9.81367 5.8822C9.86854 5.8459 9.93288 5.82655 9.99867 5.82655C10.0645 5.82655 10.1288 5.8459 10.1837 5.8822L14.614 8.8362L15 8.26886Z" fill="#929EAE"/>
<path d="M9.00008 10.3335C8.91168 10.3335 8.82689 10.3686 8.76438 10.4311C8.70187 10.4936 8.66675 10.5784 8.66675 10.6668V14.3335H11.3334V10.6668C11.3334 10.5784 11.2983 10.4936 11.2358 10.4311C11.1733 10.3686 11.0885 10.3335 11.0001 10.3335H9.00008Z" fill="#929EAE"/>
<path d="M12.9999 14.3334C13.1767 14.3334 13.3463 14.2632 13.4713 14.1381C13.5963 14.0131 13.6666 13.8435 13.6666 13.6667V9.00473L9.99992 6.56006L6.33325 9.00473V13.6667C6.33325 13.8435 6.40349 14.0131 6.52851 14.1381C6.65354 14.2632 6.82311 14.3334 6.99992 14.3334H7.99992V10.6667C7.99992 10.4015 8.10528 10.1472 8.29281 9.95962C8.48035 9.77208 8.7347 9.66673 8.99992 9.66673H10.9999C11.2651 9.66673 11.5195 9.77208 11.707 9.95962C11.8946 10.1472 11.9999 10.4015 11.9999 10.6667V14.3334H12.9999Z" fill="#929EAE"/>
</g>
<defs>
<clipPath id="clip0_11919_12879">
<rect width="20" height="20" fill="white"/>
</clipPath>
</defs>
</svg>
