<svg width="20" height="20" viewBox="0 0 20 20" fill="none" xmlns="http://www.w3.org/2000/svg">
<path d="M13.75 13.75C13.75 13.9158 13.8158 14.0747 13.9331 14.1919C14.0503 14.3092 14.2092 14.375 14.375 14.375H17.5V13.125H14.375C14.2092 13.125 14.0503 13.1908 13.9331 13.3081C13.8158 13.4253 13.75 13.5842 13.75 13.75Z" fill="current"/>
<path d="M16.25 8.86875V8.125C16.25 7.62772 16.0525 7.15081 15.7008 6.79917C15.3492 6.44754 14.8723 6.25 14.375 6.25H12.65L11.4 7.5H14.375C14.5408 7.5 14.6997 7.56585 14.8169 7.68306C14.9342 7.80027 15 7.95924 15 8.125V8.75H4.375C4.20924 8.75 4.05027 8.68415 3.93306 8.56694C3.81585 8.44973 3.75 8.29076 3.75 8.125C3.75 7.95924 3.81585 7.80027 3.93306 7.68306C4.05027 7.56585 4.20924 7.5 4.375 7.5H7.35L6.1 6.25H4.375C3.87772 6.25 3.40081 6.44754 3.04917 6.79917C2.69754 7.15081 2.5 7.62772 2.5 8.125V16.875C2.5 17.3723 2.69754 17.8492 3.04917 18.2008C3.40081 18.5525 3.87772 18.75 4.375 18.75H15.625C16.1223 18.75 16.5992 18.5525 16.9508 18.2008C17.3025 17.8492 17.5 17.3723 17.5 16.875V15.625H14.375C13.8777 15.625 13.4008 15.4275 13.0492 15.0758C12.6975 14.7242 12.5 14.2473 12.5 13.75C12.5 13.2527 12.6975 12.7758 13.0492 12.4242C13.4008 12.0725 13.8777 11.875 14.375 11.875H17.5V10.625C17.4976 10.2392 17.3763 9.86358 17.1526 9.54928C16.9289 9.23498 16.6137 8.99734 16.25 8.86875Z" fill="current"/>
<path d="M8.93109 7.31875C8.9892 7.37733 9.05832 7.42383 9.13448 7.45556C9.21064 7.48729 9.29234 7.50362 9.37484 7.50362C9.45735 7.50362 9.53904 7.48729 9.6152 7.45556C9.69137 7.42383 9.76049 7.37733 9.81859 7.31875L11.6936 5.44375C11.7803 5.35586 11.8391 5.24425 11.8624 5.12301C11.8858 5.00177 11.8727 4.87632 11.8248 4.7625C11.778 4.64836 11.6983 4.55066 11.596 4.4817C11.4937 4.41274 11.3732 4.37562 11.2498 4.375H9.99984V1.875C9.99984 1.70924 9.934 1.55027 9.81678 1.43306C9.69957 1.31585 9.5406 1.25 9.37484 1.25C9.20908 1.25 9.05011 1.31585 8.9329 1.43306C8.81569 1.55027 8.74984 1.70924 8.74984 1.875V4.375H7.49984C7.37645 4.37562 7.256 4.41274 7.15368 4.4817C7.05135 4.55066 6.97173 4.64836 6.92484 4.7625C6.87698 4.87632 6.8639 5.00177 6.88726 5.12301C6.91062 5.24425 6.96937 5.35586 7.05609 5.44375L8.93109 7.31875Z" fill="current"/>
</svg>
