<svg width="20" height="20" viewBox="0 0 20 20" fill="none" xmlns="http://www.w3.org/2000/svg">
<g clip-path="url(#clip0_11919_12884)">
<path d="M8.65495 14.0984C8.28565 14.4678 7.77452 14.6786 7.25018 14.6786C7.24393 14.6786 7.23776 14.6786 7.23147 14.6785C7.21038 14.6783 7.18948 14.6772 7.1685 14.6764C7.10292 14.9269 6.97261 15.1637 6.77671 15.3596L5.10819 17.0281C4.51925 17.6171 3.56097 17.6171 2.97194 17.0281C2.68729 16.7434 2.5305 16.3641 2.5305 15.96C2.5305 15.5559 2.68729 15.1765 2.97194 14.8919L4.64042 13.2234C4.83503 13.0288 5.07003 12.8989 5.31866 12.8329C5.29413 12.3027 5.48237 11.7644 5.88261 11.3642L6.77476 10.472C5.23026 9.96135 3.49636 10.3563 2.32999 11.5226L1.27116 12.5814C-0.423721 14.2763 -0.423721 17.034 1.27116 18.7289C2.11874 19.5764 3.23171 20.0001 4.34495 20C5.458 19.9999 6.5714 19.5762 7.4187 18.7289L8.47753 17.6701C9.11022 17.0374 9.52679 16.2377 9.68229 15.3575C9.80925 14.6386 9.75515 13.9096 9.528 13.2254L8.65495 14.0984Z" fill="#929EAE"/>
<path d="M18.7288 1.27116C17.0339 -0.42376 14.2761 -0.423682 12.5813 1.27116L11.5225 2.32999C10.3486 3.5039 9.95839 5.22921 10.4719 6.77472L11.345 5.90163C11.7188 5.52788 12.2382 5.31499 12.7685 5.32155C12.7895 5.32175 12.8103 5.32284 12.8311 5.32366C12.898 5.06722 13.0314 4.8323 13.2232 4.64046L14.8917 2.97198C15.1862 2.67745 15.573 2.53026 15.9599 2.53026C16.3467 2.53026 16.7335 2.67753 17.028 2.97198C17.617 3.56097 17.617 4.51929 17.028 5.10827L15.3596 6.77675C15.169 6.96733 14.9358 7.10023 14.6813 7.16749C14.7057 7.69757 14.5175 8.23581 14.1174 8.63597L13.2249 9.52843C13.6724 9.67714 14.135 9.75042 14.5949 9.75042C15.7234 9.75042 16.836 9.31159 17.67 8.47753L18.7288 7.4187C20.4237 5.72378 20.4237 2.96605 18.7288 1.27116Z" fill="#929EAE"/>
<path d="M13.2887 7.80711C13.5851 7.51062 13.5899 7.02391 13.2994 6.72203C13.1593 6.57648 12.9667 6.49519 12.7573 6.4932C12.7547 6.49316 12.7521 6.49316 12.7495 6.49316C12.534 6.49316 12.3245 6.57926 12.1736 6.73012L10.1876 8.71621C10.0674 8.83648 10.0674 9.03219 10.1876 9.15246L10.8474 9.81219C10.9056 9.87047 10.9831 9.90258 11.0655 9.90258C11.1479 9.90258 11.2253 9.87047 11.2836 9.81219L13.2887 7.80711Z" fill="#929EAE"/>
<path d="M9.81249 11.2835C9.87073 11.2253 9.90284 11.1478 9.90284 11.0654C9.90284 10.983 9.87077 10.9056 9.81249 10.8473L9.15272 10.1875C9.09444 10.1293 9.01698 10.0972 8.93459 10.0972C8.85221 10.0972 8.77475 10.1292 8.71647 10.1875L6.71135 12.1926C6.41491 12.4891 6.4101 12.9758 6.70065 13.2777C6.84077 13.4233 7.0333 13.5045 7.2428 13.5065C7.46077 13.5092 7.67377 13.4222 7.82639 13.2696L9.81249 11.2835Z" fill="#929EAE"/>
<path d="M6.34856 7.17724C6.46298 7.29165 6.61294 7.34888 6.7629 7.34888C6.91286 7.34888 7.06282 7.29169 7.17724 7.17724C7.4061 6.94841 7.4061 6.57743 7.17724 6.3486L6.17118 5.34255C5.94235 5.11368 5.57134 5.11368 5.34255 5.34255C5.11368 5.57138 5.11368 5.94235 5.34255 6.17118L6.34856 7.17724Z" fill="#929EAE"/>
<path d="M7.98714 5.86166C8.06433 6.11408 8.2964 6.27643 8.5473 6.27643C8.60402 6.27643 8.66175 6.26811 8.71882 6.25069C9.02828 6.15608 9.20245 5.8285 9.10785 5.51905L8.69187 4.15842C8.59722 3.84893 8.26968 3.67483 7.96019 3.7694C7.65074 3.86401 7.47656 4.19158 7.57117 4.50104L7.98714 5.86166Z" fill="#929EAE"/>
<path d="M4.15869 8.69189L5.51928 9.10787C5.57639 9.12533 5.63408 9.13361 5.6908 9.13361C5.94166 9.13361 6.17381 8.97119 6.25096 8.71881C6.34557 8.40936 6.17139 8.08178 5.86193 7.98717L4.50135 7.57119C4.1917 7.4765 3.86432 7.6508 3.76967 7.96025C3.67502 8.26971 3.84924 8.59728 4.15869 8.69189Z" fill="#929EAE"/>
<path d="M13.6514 12.8225C13.4226 12.5937 13.0516 12.5937 12.8228 12.8225C12.5939 13.0513 12.5939 13.4223 12.8228 13.6512L13.8289 14.6572C13.9433 14.7716 14.0932 14.8289 14.2432 14.8289C14.3932 14.8289 14.5431 14.7717 14.6575 14.6572C14.8864 14.4284 14.8864 14.0574 14.6575 13.8286L13.6514 12.8225Z" fill="#929EAE"/>
<path d="M12.0129 14.1379C11.9183 13.8285 11.5906 13.6543 11.2812 13.7489C10.9718 13.8435 10.7976 14.1711 10.8922 14.4806L11.3082 15.8412C11.3854 16.0936 11.6175 16.256 11.8684 16.256C11.9251 16.256 11.9828 16.2477 12.0399 16.2302C12.3494 16.1356 12.5235 15.8081 12.4289 15.4986L12.0129 14.1379Z" fill="#929EAE"/>
<path d="M15.8414 11.308L14.4808 10.892C14.1712 10.7973 13.8438 10.9716 13.7491 11.281C13.6545 11.5905 13.8287 11.9181 14.1382 12.0127L15.4988 12.4287C15.5559 12.4461 15.6136 12.4544 15.6703 12.4544C15.9212 12.4544 16.1533 12.292 16.2305 12.0396C16.3251 11.7301 16.1509 11.4026 15.8414 11.308Z" fill="#929EAE"/>
</g>
<defs>
<clipPath id="clip0_11919_12884">
<rect width="20" height="20" fill="white"/>
</clipPath>
</defs>
</svg>
