<svg width="16" height="22" viewBox="0 0 16 22" fill="none" xmlns="http://www.w3.org/2000/svg">
                <mask id="path-1-inside-1_11977_1312" fill="white">
                  <path d="M15.0465 5.62611L15.0435 5.62836C15.1065 5.80236 15.165 5.97861 15.2153 6.15861C15.1643 5.97861 15.1095 5.80011 15.0465 5.62611ZM7.99954 0.672363L2.69629 2.86986L5.74354 5.91636C6.34163 5.32888 7.14713 5.00074 7.98548 5.00305C8.82384 5.00537 9.62752 5.33796 10.2223 5.92875C10.8172 6.51953 11.1552 7.32092 11.1633 8.15924C11.1713 8.99756 10.8487 9.80528 10.2653 10.4074L14.7495 5.92236L15.0435 5.62836C14.522 4.17789 13.5657 2.92362 12.3051 2.03667C11.0445 1.14973 9.54092 0.67329 7.99954 0.672363Z" />
                </mask>
                <path d="M15.0465 5.62611L15.0435 5.62836C15.1065 5.80236 15.165 5.97861 15.2153 6.15861C15.1643 5.97861 15.1095 5.80011 15.0465 5.62611ZM7.99954 0.672363L2.69629 2.86986L5.74354 5.91636C6.34163 5.32888 7.14713 5.00074 7.98548 5.00305C8.82384 5.00537 9.62752 5.33796 10.2223 5.92875C10.8172 6.51953 11.1552 7.32092 11.1633 8.15924C11.1713 8.99756 10.8487 9.80528 10.2653 10.4074L14.7495 5.92236L15.0435 5.62836C14.522 4.17789 13.5657 2.92362 12.3051 2.03667C11.0445 1.14973 9.54092 0.67329 7.99954 0.672363Z" fill="#4285F4" />
                <path d="M15.0465 5.62611L30.0908 0.179056L22.7317 -20.146L5.44263 -7.17096L15.0465 5.62611ZM15.2153 6.15861L-0.178736 10.5203L30.626 1.85644L15.2153 6.15861ZM7.99954 0.672363L8.00916 -15.3276L4.82046 -15.3296L1.87465 -14.1089L7.99954 0.672363ZM2.69629 2.86986L-3.4286 -11.9114L-25.5501 -2.74495L-8.61603 14.185L2.69629 2.86986ZM5.74354 5.91636L-5.56878 17.2315L5.64422 28.4417L16.9556 17.3308L5.74354 5.91636ZM10.2653 10.4074L-1.22536 -0.726591L21.5799 21.7201L10.2653 10.4074ZM14.7495 5.92236L3.43587 -5.39139L3.43488 -5.3904L14.7495 5.92236ZM5.44263 -7.17096L5.43963 -7.16871L24.6474 18.4254L24.6504 18.4232L5.44263 -7.17096ZM-0.000712452 11.0754C-0.0334628 10.985 -0.109962 10.7671 -0.195463 10.4608L30.626 1.85644C30.44 1.19017 30.2465 0.619759 30.0878 0.181306L-0.000712452 11.0754ZM30.6093 1.79697C30.5006 1.41322 30.3301 0.840057 30.0908 0.179056L0.0022859 11.0732C-0.111042 10.7602 -0.172008 10.544 -0.178736 10.5203L30.6093 1.79697ZM1.87465 -14.1089L-3.4286 -11.9114L8.82118 17.6511L14.1244 15.4536L1.87465 -14.1089ZM-8.61603 14.185L-5.56878 17.2315L17.0559 -5.39874L14.0086 -8.44524L-8.61603 14.185ZM16.9556 17.3308C14.5509 19.6929 11.3121 21.0123 7.94125 21.003L8.02972 -10.9969C2.98214 -11.0108 -1.86761 -9.03518 -5.46856 -5.49805L16.9556 17.3308ZM7.94125 21.003C4.5704 20.9937 1.33899 19.6564 -1.05269 17.281L21.4974 -5.4235C17.916 -8.98049 13.0773 -10.9829 8.02972 -10.9969L7.94125 21.003ZM-1.05269 17.281C-3.44438 14.9056 -4.80367 11.6834 -4.83599 8.31265L27.1625 8.00583C27.1141 2.95848 25.0787 -1.86651 21.4974 -5.4235L-1.05269 17.281ZM-4.83599 8.31265C-4.86831 4.94192 -3.57105 1.69425 -1.22536 -0.726591L21.7559 21.5413C25.2684 17.9163 27.2109 13.0532 27.1625 8.00583L-4.83599 8.31265ZM21.5799 21.7201L26.0642 17.2351L3.43488 -5.3904L-1.04937 -0.905399L21.5799 21.7201ZM26.0632 17.2361L26.3572 16.9421L3.72987 -5.68539L3.43587 -5.39139L26.0632 17.2361ZM30.0999 0.214929C28.4644 -4.33393 25.4653 -8.26745 21.5119 -11.049L3.09832 15.1224C1.66611 14.1147 0.579652 12.6897 -0.0128438 11.0418L30.0999 0.214929ZM21.5119 -11.049C17.5584 -13.8306 12.8431 -15.3247 8.00916 -15.3276L7.98992 16.6724C6.23874 16.6713 4.53052 16.13 3.09832 15.1224L21.5119 -11.049Z" fill="#344054" mask="url(#path-1-inside-1_11977_1312)" />
                <path d="M8.00001 11.3546C7.37005 11.3544 6.75428 11.1676 6.23045 10.8176C5.70662 10.4677 5.29823 9.97039 5.05684 9.38852C4.81546 8.80664 4.7519 8.16628 4.87421 7.54831C4.99651 6.93034 5.29918 6.36246 5.74401 5.91639L2.69676 2.86914C1.99925 3.56478 1.4461 4.39141 1.06911 5.30153C0.692116 6.21164 0.49871 7.18729 0.500006 8.17239C0.500006 11.4769 2.19876 13.5476 4.19751 15.6724C4.33176 15.8096 4.44276 15.9611 4.56951 16.1036L10.2395 10.4329C9.6442 11.0242 8.83907 11.3558 8.00001 11.3554V11.3546Z" fill="#FFBA00" />
                <path d="M8.00001 0.672363C6.01089 0.672363 4.10324 1.46254 2.69671 2.86906C1.29019 4.27559 0.500015 6.18324 0.500015 8.17236C0.498364 9.0523 0.636329 9.92692 0.908765 10.7636L10.5463 1.12611C9.73037 0.827904 8.8687 0.674351 8.00001 0.672363Z" fill="#0066DA" />
                <path d="M8.67559 20.84C9.35681 18.9444 10.382 17.1908 11.6996 15.6672C13.8483 13.4847 15.4998 11.477 15.4998 8.17249C15.4981 7.3036 15.3448 6.44168 15.0468 5.62549L4.56934 16.103C5.77548 17.4742 6.69162 19.0753 7.26259 20.81C7.31065 20.9576 7.40345 21.0867 7.52813 21.1793C7.65281 21.2718 7.80319 21.3233 7.95844 21.3266C8.11368 21.3299 8.26611 21.2849 8.39461 21.1977C8.5231 21.1105 8.62129 20.9855 8.67559 20.84Z" fill="#00AC47" />
                <path d="M4.19756 15.6722C4.33181 15.8094 4.44281 15.9609 4.56956 16.1034C4.44281 15.9609 4.33106 15.8094 4.19756 15.6722Z" fill="#0066DA" fill-opacity="0.314" />
                <path d="M7.39672 21.049C7.41172 21.0677 7.42972 21.0805 7.44622 21.097C7.42972 21.0805 7.41172 21.067 7.39672 21.049ZM7.26247 20.8097C7.10897 20.3577 6.93647 19.9185 6.74497 19.492C6.93397 19.9195 7.10947 20.3575 7.26247 20.8097ZM7.64497 21.2417C7.62772 21.2342 7.61047 21.2267 7.59397 21.217C7.61047 21.2267 7.62772 21.2335 7.64497 21.2417ZM10.7837 16.8145C10.5962 17.0747 10.4327 17.3485 10.264 17.62C10.432 17.3485 10.597 17.0755 10.7837 16.8145ZM8.78497 20.5802C8.96047 20.1367 9.14947 19.701 9.35197 19.273C9.14872 19.7005 8.96047 20.137 8.78497 20.5802Z" fill="white" />
                <path d="M2.69676 2.86963C1.99935 3.56518 1.44625 4.39169 1.06926 5.30167C0.692271 6.21165 0.498817 7.18715 0.500015 8.17213C0.498364 9.05206 0.636329 9.92668 0.908765 10.7634L5.75001 5.92213L2.69676 2.86963Z" fill="#EA4435" />
              </svg>