<svg width="20" height="20" viewBox="0 0 20 20" fill="none" xmlns="http://www.w3.org/2000/svg">
<path d="M14 1.6665H11.8333C9.16667 1.6665 7.5 3.33317 7.5 5.99984V9.37484H12.7083C13.05 9.37484 13.3333 9.65817 13.3333 9.99984C13.3333 10.3415 13.05 10.6248 12.7083 10.6248H7.5V13.9998C7.5 16.6665 9.16667 18.3332 11.8333 18.3332H13.9917C16.6583 18.3332 18.325 16.6665 18.325 13.9998V5.99984C18.3333 3.33317 16.6667 1.6665 14 1.6665Z" fill="#929EAE"/>
<path d="M3.79946 9.37503L5.52446 7.65003C5.64946 7.52503 5.7078 7.3667 5.7078 7.20837C5.7078 7.05003 5.64946 6.88337 5.52446 6.7667C5.2828 6.52503 4.8828 6.52503 4.64113 6.7667L1.84946 9.55837C1.6078 9.80003 1.6078 10.2 1.84946 10.4417L4.64113 13.2334C4.8828 13.475 5.2828 13.475 5.52446 13.2334C5.76613 12.9917 5.76613 12.5917 5.52446 12.35L3.79946 10.625H7.49946V9.37503H3.79946V9.37503Z" fill="#929EAE"/>
</svg>
