<svg width="20" height="20" viewBox="0 0 20 20" fill="none" xmlns="http://www.w3.org/2000/svg">
<g clip-path="url(#clip0_11919_12848)">
<path d="M15.2083 20H14.7917C13.9875 20 13.3333 19.3458 13.3333 18.5417V16.6667H11.4583C10.6542 16.6667 10 16.0125 10 15.2083V14.7917C10 13.9875 10.6542 13.3333 11.4583 13.3333H13.3333V11.4583C13.3333 10.6542 13.9875 10 14.7917 10H15.2083C16.0125 10 16.6667 10.6542 16.6667 11.4583V13.3333H18.5417C19.3458 13.3333 20 13.9875 20 14.7917V15.2083C20 16.0125 19.3458 16.6667 18.5417 16.6667H16.6667V18.5417C16.6667 19.3458 16.0125 20 15.2083 20Z" fill="current"/>
<path d="M7.49992 8.33333C9.80111 8.33333 11.6666 6.46785 11.6666 4.16667C11.6666 1.86548 9.80111 0 7.49992 0C5.19873 0 3.33325 1.86548 3.33325 4.16667C3.33325 6.46785 5.19873 8.33333 7.49992 8.33333Z" fill="current"/>
<path d="M8.33333 15.2083V14.7917C8.33333 13.0683 9.735 11.6667 11.4583 11.6667H11.6667V11.4583C11.6667 10.9983 11.7725 10.565 11.9517 10.1708C11.5933 10.0708 11.2233 10 10.8333 10H4.16667C1.86583 10 0 11.8658 0 14.1667V16.875C0 17.22 0.28 17.5 0.625 17.5H9.35C8.72917 16.9283 8.33333 16.1167 8.33333 15.2083Z" fill="current"/>
</g>
<defs>
<clipPath id="clip0_11919_12848">
<rect width="20" height="20" fill="current"/>
</clipPath>
</defs>
</svg>
