<svg width="20" height="20" viewBox="0 0 20 20" fill="none" xmlns="http://www.w3.org/2000/svg">
<g clip-path="url(#clip0_11919_12797)">
<path d="M17.5267 3.98795C17.5267 3.63179 17.165 3.52796 16.8833 3.46498V4.5007C17.1974 4.47943 17.5267 4.3322 17.5267 3.98795ZM16.5693 1.78076C16.2135 1.79097 15.9829 2.00076 15.9829 2.22543C15.9829 2.48713 16.1778 2.63862 16.5697 2.71691L16.5693 1.78076Z" fill="current"/>
<path d="M16.7159 6.32625C18.4606 6.32625 19.8793 4.90713 19.8793 3.16334C19.8793 1.41954 18.4602 0 16.7159 0C14.9709 0 13.5518 1.41912 13.5518 3.16334C13.5518 4.90713 14.9709 6.32625 16.7159 6.32625ZM15.3249 2.34548C15.3249 1.63486 15.916 1.26763 16.5696 1.24721V0.968916C16.5696 0.87913 16.6372 0.790621 16.7257 0.790621C16.8151 0.790621 16.8832 0.87913 16.8832 0.968916V1.24721C17.2904 1.25785 18.1283 1.51358 18.1283 2.02719C18.1283 2.23102 17.9759 2.35101 17.7985 2.35101C17.4576 2.35101 17.4632 1.79145 16.8836 1.78081V2.77483C17.5747 2.92121 18.1857 3.12547 18.1857 3.93098C18.1857 4.63139 17.6627 4.98755 16.8836 5.03479V5.35818C16.8836 5.44754 16.8155 5.53648 16.7262 5.53648C16.6377 5.53648 16.57 5.44754 16.57 5.35818V5.03479C15.6862 5.01308 15.247 4.48501 15.247 4.0714C15.247 3.8629 15.373 3.74205 15.5709 3.74205C16.1568 3.74205 15.7015 4.46373 16.5704 4.50076V3.40716C15.7947 3.26589 15.3249 2.92632 15.3249 2.34548ZM3.9809 14.0903H1.25372C0.751608 14.0903 0.344808 14.4976 0.344808 14.9997V19.0902C0.344808 19.3313 0.440555 19.5626 0.610998 19.7331C0.78144 19.9036 1.01263 19.9995 1.25372 19.9996H3.9809C4.48302 19.9996 4.88982 19.5932 4.88982 19.0902V14.9997C4.88993 14.8803 4.8665 14.762 4.82087 14.6517C4.77523 14.5413 4.70829 14.441 4.62388 14.3566C4.53946 14.2721 4.43922 14.2051 4.32889 14.1595C4.21856 14.1138 4.10031 14.0903 3.9809 14.0903ZM11.0293 10.9091H8.30209C7.79997 10.9091 7.39317 11.3164 7.39317 11.8185V19.0911C7.39317 19.5941 7.80039 20.0004 8.30209 20.0004H11.0293C11.5314 20.0004 11.9386 19.5941 11.9386 19.0911V11.8172C11.9384 11.5762 11.8425 11.3452 11.6719 11.1749C11.5014 11.0046 11.2702 10.909 11.0293 10.9091ZM18.0789 7.27261H15.3521C15.2328 7.27256 15.1145 7.29602 15.0042 7.34168C14.8939 7.38733 14.7936 7.45427 14.7092 7.53868C14.6247 7.62308 14.5577 7.7233 14.512 7.8336C14.4663 7.9439 14.4428 8.06213 14.4428 8.18153V19.0902C14.4428 19.5932 14.85 19.9996 15.3521 19.9996H18.0789C18.1983 19.9997 18.3166 19.9762 18.427 19.9306C18.5374 19.8849 18.6377 19.8179 18.7222 19.7335C18.8066 19.649 18.8736 19.5487 18.9192 19.4384C18.9649 19.328 18.9884 19.2097 18.9882 19.0902V8.18195C18.9883 8.06252 18.9648 7.94425 18.9191 7.8339C18.8735 7.72355 18.8065 7.62328 18.722 7.53883C18.6376 7.45438 18.5373 7.3874 18.427 7.34172C18.3166 7.29604 18.1983 7.27256 18.0789 7.27261ZM12.6275 4.66884L10.3701 4.19693C10.2856 4.17942 10.1978 4.18634 10.117 4.21689C10.0362 4.24744 9.96579 4.30035 9.91397 4.36943C9.86216 4.43852 9.83108 4.52093 9.82437 4.60703C9.81766 4.69313 9.8356 4.77936 9.87609 4.85564L10.3765 5.79647L0.367361 10.9593C0.314358 10.9867 0.267268 11.0243 0.228778 11.0699C0.190288 11.1154 0.161153 11.1682 0.143036 11.225C0.124919 11.2818 0.118175 11.3417 0.123189 11.4011C0.128203 11.4606 0.144877 11.5185 0.172258 11.5715C0.19964 11.6245 0.237193 11.6715 0.282773 11.71C0.328353 11.7485 0.381069 11.7777 0.437909 11.7958C0.494749 11.8139 0.554601 11.8206 0.614047 11.8156C0.673494 11.8106 0.73137 11.7939 0.784373 11.7666L10.8029 6.59858L11.262 7.46154C11.3412 7.61048 11.4956 7.70281 11.6633 7.70281L11.6863 7.70196C11.8624 7.69303 12.0178 7.58324 12.0841 7.41984L12.956 5.28457C12.9814 5.22291 12.9929 5.15639 12.9896 5.08978C12.9863 5.02317 12.9683 4.95811 12.9369 4.89927C12.9055 4.84042 12.8615 4.78925 12.808 4.74941C12.7545 4.70958 12.6929 4.68206 12.6275 4.66884Z" fill="current"/>
</g>
<defs>
<clipPath id="clip0_11919_12797">
<rect width="20" height="20" fill="white"/>
</clipPath>
</defs>
</svg>
