<svg width="90" height="64" viewBox="0 0 90 64" fill="none" xmlns="http://www.w3.org/2000/svg">
<line x1="2" y1="30.1621" x2="88" y2="30.1621" stroke="#C6FAB7" stroke-linecap="round" stroke-dasharray="4 4"/>
<path d="M88.5 32.1861C84.875 32.1861 77.625 35.3176 75.2083 36.5702C70.8446 38.8319 67.3542 46.5908 65.5417 46.5908C63.7292 46.5908 60.7083 35.9439 58.2917 35.9439C57.0833 35.9439 55.2708 38.449 54.0625 37.8227C51.6458 36.5702 50.4375 18.4077 46.8125 18.4077C41.9792 18.4077 41.375 31.5598 38.3542 33.4387C35.3333 35.3176 32.3125 34.6913 30.5 34.6913C28.6875 34.6913 26.875 37.1965 25.6667 37.1965C24.8122 37.1965 23.1959 31.7304 21.4375 32.1861C19.0208 32.8124 17.2083 42.8331 15.3958 43.4594C13.5833 43.4594 13.5833 40.3279 11.7708 40.3279C9.95833 40.3279 2.10416 43.4594 1.5 39.0753" stroke="#46D64B" stroke-width="2" stroke-linecap="round"/>
</svg>
