<svg width="98" height="98" viewBox="0 0 98 98" fill="none" xmlns="http://www.w3.org/2000/svg">
<g clip-path="url(#clip0_11452_37772)">
<path d="M36.0964 0H30.9438V5.15951H36.0964H41.2591V0H36.0964Z" fill="#475467"/>
<path d="M67.0539 0H61.8911V5.14927H67.0539V0Z" fill="#475467"/>
<path d="M56.7374 5.15951H51.5747V0H46.4222V5.15951H41.2594V10.3088V15.4683H36.0967V20.6176H41.2594V25.7771H46.4222H51.5747V20.6176H46.4222V15.4683V10.3088H51.5747H56.7374H61.8899V5.15951H56.7374Z" fill="#475467"/>
<path d="M67.0539 15.4681V10.3086H61.8911V15.4681V20.6174H67.0539V15.4681Z" fill="#475467"/>
<path d="M30.9438 25.7767V30.926H36.0963V25.7767V20.6172H30.9438V25.7767Z" fill="#475467"/>
<path d="M61.8908 20.6172H56.7383V25.7665H61.8908V20.6172Z" fill="#475467"/>
<path d="M41.2614 56.7031H36.1089V61.8626H41.2614V56.7031Z" fill="#475467"/>
<path d="M5.16275 30.9277H0V36.0872H5.16275V30.9277Z" fill="#475467"/>
<path d="M56.7397 36.0759H61.8922V41.2354H67.055V36.0759H72.2075V30.9266H67.055V25.7773H61.8922V30.9266H56.7397H51.577H46.4245H41.2617V36.0759H46.4245H51.577V41.2354H56.7397V36.0759Z" fill="#475467"/>
<path d="M92.838 36.077V30.9277H87.6855V36.077V41.2365H92.838V36.077Z" fill="#475467"/>
<path d="M5.16275 41.2363H0V46.3856H5.16275V41.2363Z" fill="#475467"/>
<path d="M25.7921 46.3858H30.9447V41.2365H36.0972V36.077H30.9447H25.7921V30.9277H20.6294V36.077V41.2365H25.7921V46.3858Z" fill="#475467"/>
<path d="M51.5895 41.2363H46.4268V46.3856H51.5895V41.2363Z" fill="#475467"/>
<path d="M82.5239 41.2365V36.077V30.9277H77.3714V36.077V41.2365H72.2087H67.0562V46.3858H72.2087H77.3714V51.5453H82.5239V46.3858H87.6867V41.2365H82.5239Z" fill="#475467"/>
<path d="M25.7951 46.3858H20.6323V41.2365H15.4798V36.077V30.9277H10.3171V36.077H5.16455V41.2365H10.3171V46.3858H15.4798V51.5453H20.6323V56.7048H25.7951V51.5453V46.3858Z" fill="#475467"/>
<path d="M36.0967 51.5451H41.2594V56.7046H46.4222V51.5451V46.3856H41.2594V41.2363H36.0967V46.3856V51.5451Z" fill="#475467"/>
<path d="M92.8387 46.3838H87.6862V51.5433V56.7028H82.5234V61.8521H87.6862V67.0116H92.8387V72.1608V77.3204H98.0014V72.1608V67.0116V61.8521H92.8387V56.7028H98.0014V51.5433H92.8387V46.3838Z" fill="#475467"/>
<path d="M5.16275 51.543H0V56.7025V61.8517H5.16275V67.0113H10.3153V61.8517V56.7025H5.16275V51.543Z" fill="#475467"/>
<path d="M15.4772 51.543H10.3145V56.6922H15.4772V51.543Z" fill="#475467"/>
<path d="M67.0513 51.5433V46.3838H61.8885H56.736H51.5732V51.5433V56.7028H56.736V51.5433H61.8885V56.7028H67.0513V61.8521H72.2038V56.7028H77.3665V51.5433H72.2038H67.0513Z" fill="#475467"/>
<path d="M20.6291 56.7031H15.4766V61.8626H20.6291V56.7031Z" fill="#475467"/>
<path d="M30.9469 56.7031H25.7944V61.8524V67.0119H30.9469V72.1612V77.3207H36.0994V72.1612V67.0119V61.8524H30.9469V56.7031Z" fill="#475467"/>
<path d="M51.5895 56.7031H46.4268V61.8626H51.5895V56.7031Z" fill="#475467"/>
<path d="M46.4245 61.8525H41.2617V67.012H46.4245V61.8525Z" fill="#475467"/>
<path d="M61.8885 72.1613V67.012V61.8525H56.736V67.012H51.5732V72.1613H56.736H61.8885Z" fill="#475467"/>
<path d="M46.4245 72.1621H41.2617V77.3216H46.4245V72.1621Z" fill="#475467"/>
<path d="M56.736 77.3203H51.5732V82.4696H56.736V77.3203Z" fill="#475467"/>
<path d="M82.6138 77.3213V61.8428H61.8911V82.5627H67.0129V87.6301H72.1347V82.5627H77.2564V87.6301H82.3782V82.5627H82.4704V82.4706H87.5409V87.5891H97.8562V82.4706H92.7344V77.352H82.4909L82.6138 77.3213ZM65.8554 65.8148H78.752V78.7033H65.8554V65.8148Z" fill="#475467"/>
<path d="M36.0967 87.6291V92.7784H41.2594V87.6291V82.4696V77.3203H36.0967V82.4696V87.6291Z" fill="#475467"/>
<path d="M56.7383 87.6309V92.7801H61.8908H67.0535V87.6309H61.8908H56.7383Z" fill="#475467"/>
<path d="M36.1066 92.7783H30.9438V97.9378H36.1066V92.7783Z" fill="#475467"/>
<path d="M46.4245 97.9378H51.577V92.7783H46.4245H41.2617V97.9378H46.4245Z" fill="#475467"/>
<path d="M87.6855 92.7783V97.9378H92.8381H98.0008V92.7783H92.8381H87.6855Z" fill="#475467"/>
<path d="M74.8922 69.6826H69.7295V74.8319H74.8922V69.6826Z" fill="#475467"/>
<path d="M25.783 0H0V25.7668H25.783V0ZM21.9417 21.9074H3.87203V3.86963H21.9417V21.9074Z" fill="#475467"/>
<path d="M18.0506 7.72949H7.73535V18.0383H18.0506V7.72949Z" fill="#475467"/>
<path d="M72.2056 0V25.7668H97.9988V0H72.2056ZM94.1267 21.9074H76.0776V3.86963H94.1267V21.9074Z" fill="#475467"/>
<path d="M90.2562 7.72949H79.9409V18.0383H90.2562V7.72949Z" fill="#475467"/>
<path d="M0 97.9998H25.783V72.2227H0V97.9998ZM3.87203 76.0923H21.9417V94.1301H3.87203V76.0923Z" fill="#475467"/>
<path d="M18.0506 79.9619H7.73535V90.2707H18.0506V79.9619Z" fill="#475467"/>
</g>
<defs>
<clipPath id="clip0_11452_37772">
<rect width="98" height="98" fill="white"/>
</clipPath>
</defs>
</svg>
